<svg xmlns="http://www.w3.org/2000/svg" version="1.1" xmlns:xlink="http://www.w3.org/1999/xlink" viewBox="0 0 200 200"><rect width="200" height="200" fill="url('#gradient')"></rect><defs><linearGradient id="gradient" gradientTransform="rotate(177 0.5 0.5)"><stop offset="0%" stop-color="#445272"></stop><stop offset="100%" stop-color="#ee9044"></stop></linearGradient></defs><g><g fill="#445272" transform="matrix(1.5680612523926716,0,0,1.5680612523926716,14.31757862532696,111.61371998477901)" stroke="#8fa983" stroke-width="0.55"><path d="M5.75 0L1.07 0L1.07-14.22L5.65-14.22Q7.54-14.22 9.04-13.36Q10.55-12.51 11.39-10.95Q12.24-9.39 12.25-7.46L12.25-7.46L12.25-6.81Q12.25-4.85 11.42-3.31Q10.60-1.76 9.10-0.88Q7.60-0.01 5.75 0L5.75 0ZM5.65-11.57L4.50-11.57L4.50-2.64L5.69-2.64Q7.17-2.64 7.96-3.69Q8.75-4.74 8.75-6.81L8.75-6.81L8.75-7.42Q8.75-9.48 7.96-10.53Q7.17-11.57 5.65-11.57L5.65-11.57ZM13.45-4.82L13.44-5.38Q13.44-6.96 14.05-8.20Q14.67-9.43 15.82-10.10Q16.97-10.76 18.53-10.76L18.53-10.76Q20.90-10.76 22.27-9.29Q23.63-7.82 23.63-5.29L23.63-5.29L23.63-5.18Q23.63-2.71 22.26-1.25Q20.89 0.20 18.54 0.20L18.54 0.20Q16.29 0.20 14.92-1.16Q13.55-2.51 13.45-4.82L13.45-4.82ZM16.74-5.77L16.73-5.18Q16.73-3.71 17.19-3.03Q17.65-2.34 18.54-2.34L18.54-2.34Q20.30-2.34 20.34-5.05L20.34-5.05L20.34-5.38Q20.34-8.22 18.53-8.22L18.53-8.22Q16.88-8.22 16.74-5.77L16.74-5.77ZM29.55-2.34L29.55-2.34Q30.24-2.34 30.63-2.72Q31.01-3.10 31.00-3.77L31.00-3.77L34.08-3.77Q34.08-2.03 32.84-0.92Q31.59 0.20 29.63 0.20L29.63 0.20Q27.32 0.20 26.00-1.25Q24.67-2.70 24.67-5.25L24.67-5.25L24.67-5.39Q24.67-6.99 25.26-8.22Q25.85-9.44 26.96-10.10Q28.08-10.76 29.60-10.76L29.60-10.76Q31.66-10.76 32.87-9.62Q34.08-8.48 34.08-6.52L34.08-6.52L31.00-6.52Q31.00-7.34 30.60-7.78Q30.20-8.22 29.52-8.22L29.52-8.22Q28.24-8.22 28.03-6.59L28.03-6.59Q27.96-6.07 27.96-5.17L27.96-5.17Q27.96-3.57 28.34-2.96Q28.72-2.34 29.55-2.34ZM51.18-14.22L51.18-11.57L46.91-11.57L46.91 0L43.49 0L43.49-11.57L39.30-11.57L39.30-14.22L51.18-14.22ZM58.29-10.64L58.23-7.59L57.15-7.67Q55.60-7.67 55.16-6.69L55.16-6.69L55.16 0L51.87 0L51.87-10.57L54.95-10.57L55.06-9.21Q55.89-10.76 57.37-10.76L57.37-10.76Q57.90-10.76 58.29-10.64L58.29-10.64ZM68.37 0L65.08 0Q64.90-0.32 64.77-0.95L64.77-0.95Q63.86 0.20 62.23 0.20L62.23 0.20Q60.73 0.20 59.69-0.71Q58.64-1.61 58.64-2.98L58.64-2.98Q58.64-4.70 59.91-5.58Q61.18-6.46 63.60-6.46L63.60-6.46L64.62-6.46L64.62-7.01Q64.62-8.47 63.36-8.47L63.36-8.47Q62.19-8.47 62.19-7.31L62.19-7.31L58.90-7.31Q58.90-8.85 60.20-9.80Q61.50-10.76 63.53-10.76Q65.55-10.76 66.72-9.78Q67.89-8.79 67.92-7.07L67.92-7.07L67.92-2.39Q67.94-0.94 68.37-0.17L68.37-0.17L68.37 0ZM63.02-2.15L63.02-2.15Q63.63-2.15 64.04-2.41Q64.44-2.68 64.62-3.01L64.62-3.01L64.62-4.70L63.66-4.70Q61.94-4.70 61.94-3.15L61.94-3.15Q61.94-2.71 62.25-2.43Q62.55-2.15 63.02-2.15ZM74.21-2.34L74.21-2.34Q74.90-2.34 75.28-2.72Q75.66-3.10 75.65-3.77L75.65-3.77L78.74-3.77Q78.74-2.03 77.50-0.92Q76.25 0.20 74.29 0.20L74.29 0.20Q71.98 0.20 70.65-1.25Q69.33-2.70 69.33-5.25L69.33-5.25L69.33-5.39Q69.33-6.99 69.92-8.22Q70.51-9.44 71.62-10.10Q72.73-10.76 74.26-10.76L74.26-10.76Q76.32-10.76 77.53-9.62Q78.74-8.48 78.74-6.52L78.74-6.52L75.65-6.52Q75.65-7.34 75.25-7.78Q74.85-8.22 74.18-8.22L74.18-8.22Q72.90-8.22 72.69-6.59L72.69-6.59Q72.62-6.07 72.62-5.17L72.62-5.17Q72.62-3.57 73.00-2.96Q73.38-2.34 74.21-2.34ZM86.68 0L84.38-3.94L83.45-3.01L83.45 0L80.16 0L80.16-15.01L83.45-15.01L83.45-7.04L83.78-7.48L86.26-10.57L90.21-10.57L86.50-6.22L90.45 0L86.68 0ZM95.99 0.20L95.99 0.20Q93.55 0.20 92.05-1.25Q90.55-2.71 90.55-5.03L90.55-5.03L90.55-5.30Q90.55-6.92 91.15-8.16Q91.75-9.40 92.90-10.08Q94.05-10.76 95.63-10.76L95.63-10.76Q97.86-10.76 99.15-9.38Q100.44-8.00 100.44-5.53L100.44-5.53L100.44-4.25L93.90-4.25Q94.07-3.36 94.67-2.85Q95.26-2.34 96.21-2.34L96.21-2.34Q97.77-2.34 98.65-3.44L98.65-3.44L100.16-1.66Q99.54-0.81 98.41-0.31Q97.29 0.20 95.99 0.20ZM95.62-8.22L95.62-8.22Q94.17-8.22 93.90-6.31L93.90-6.31L97.22-6.31L97.22-6.56Q97.24-7.35 96.82-7.79Q96.40-8.22 95.62-8.22ZM108.21-10.64L108.15-7.59L107.07-7.67Q105.52-7.67 105.08-6.69L105.08-6.69L105.08 0L101.79 0L101.79-10.57L104.87-10.57L104.98-9.21Q105.81-10.76 107.29-10.76L107.29-10.76Q107.82-10.76 108.21-10.64L108.21-10.64Z"></path></g></g></svg>